<?xml version="1.0" encoding="utf-8"?>
<!-- Generator: Adobe Illustrator 16.0.3, SVG Export Plug-In . SVG Version: 6.00 Build 0)  -->
<!DOCTYPE svg PUBLIC "-//W3C//DTD SVG 1.1//EN" "http://www.w3.org/Graphics/SVG/1.1/DTD/svg11.dtd">
<svg version="1.1" id="f3bef9ad-0239-4908-ae6d-7464f49c7d52"
	 xmlns="http://www.w3.org/2000/svg" xmlns:xlink="http://www.w3.org/1999/xlink" x="0px" y="0px" width="859.113px"
	 height="632.68px" viewBox="0 0 859.113 632.68" enable-background="new 0 0 859.113 632.68" xml:space="preserve">
<path id="a8ec5313-8437-40fa-9ae6-49ad9c080ae2" fill="#A0616A" d="M346.402,108.211c-0.034,0.693-0.013,1.387,0.062,2.077
	l-47.612,39.958l-14.2-5.141l-10.559,20.414l31.043,14.776l52.052-58.411c7.148,1.297,13.995-3.447,15.292-10.596
	c1.296-7.148-3.448-13.995-10.596-15.291c-7.148-1.297-13.995,3.447-15.292,10.596C346.495,107.128,346.431,107.668,346.402,108.211
	L346.402,108.211z"/>
<path id="b5ad9c77-52a4-4655-bf33-f0307720c346" fill="#CCCCCC" d="M282.545,175.313l-45.978-16.6
	c-8.79-3.172-13.343-12.87-10.171-21.66c3.172-8.79,12.87-13.343,21.66-10.171l45.978,16.6c2.929,1.057,4.447,4.289,3.39,7.218l0,0
	l-7.659,21.221C288.704,174.848,285.475,176.364,282.545,175.313L282.545,175.313z"/>
<path id="ee570c5a-79aa-496e-9580-2e913ce96aae" fill="#A0616A" d="M248.872,336.987h15.366l7.31-59.27H248.87L248.872,336.987z"/>
<path id="ab71c019-c25e-46eb-a51f-1c429aa2c12d" fill="#2F2E41" d="M293.871,351.257l-48.293,0.002l-0.001-18.659l29.634-0.001
	C285.516,332.598,293.871,340.951,293.871,351.257L293.871,351.257z"/>
<path id="f36d9583-efe1-4c6b-b146-57ada20cd73c" fill="#A0616A" d="M210.896,317.137l12.57,8.838l40.071-44.279l-18.551-13.043
	L210.896,317.137z"/>
<path id="efce1b5c-13fd-487e-9a00-7bbfe0293cc7" fill="#2F2E41" d="M237.986,351.66l-39.504-27.769l10.729-15.264l24.241,17.041
	C241.881,331.594,243.912,343.23,237.986,351.66L237.986,351.66L237.986,351.66z"/>
<path id="b962c087-78c3-438a-b2f2-2ecccfec7131" fill="#A0616A" d="M282.495,230.222c0,0,38.347-4.524,31.464,20.359
	c-6.883,24.883-83.577,46.374-83.577,46.374L282.495,230.222z"/>
<circle id="b4ce5f2d-2188-4402-bc9c-1bcfffccb703" fill="#A0616A" cx="256.101" cy="72.467" r="30.784"/>
<path id="bec54b22-7d61-4f61-9a6e-d6909ce0cfb7" fill="#CCCCCC" d="M157.928,291.859c-17.517-20.4-23.646-51.7,4.288-77.736
	c6.899-6.272,14.711-11.46,23.168-15.386l22.512-62.963c4.788-13.464,17.421-22.551,31.709-22.808
	c13.882-0.599,26.638,7.604,31.851,20.484c2.75,6.395,3.064,13.574,0.884,20.184c-6.702,20.87-15.503,41.006-26.269,60.1
	l1.164,9.313l56.907,5.058l-0.531,0.863c-0.277,0.45-28.128,42.885-63.758,71.052c-12.183,9.63-24.78,13.622-36.67,13.621
	C185.154,313.646,168.756,304.466,157.928,291.859z"/>
<path id="f5e0fb0e-7954-451a-aeef-f3006d7ce30b" fill="#333366" d="M152.558,82.125c5.446-6.49,7.782-14.978,9.662-23.24
	c2.973-13.071,5.274-26.587,11.88-38.252s18.745-21.33,32.13-20.594c13.309,0.732,24.068,11.439,29.779,23.621
	c2.796-1.085,5.921-0.934,8.6,0.415c4.116,2.254,5.655,8.661,2.229,11.869c7.288-3.47,15.708-3.68,23.159-0.577
	c9.66,4.113,16.207,13.285,16.957,23.757c0.29,4.214-1.179,8.359-4.058,11.45c-5.906,6.08-14.26,3.983-21.688,2.434
	c-7.016-1.463-15.561-1.858-19.514,4.827c-1.557,2.786-1.993,6.06-1.219,9.156c1.514,6.673,6.455,11.321,11.248,15.77l0.784,1.456
	c-16.924,3.3-35.4-8.258-39.844-24.919c-4.444-16.661,5.84-35.882,22.162-41.44l0,0c-3.367,0.108-6.185-2.533-6.293-5.9
	c-0.037-1.136,0.245-2.26,0.813-3.245c-4.516-2.532-9.628-3.809-14.805-3.699c-8.431,0.553-15.727,6.554-20.115,13.775
	c-4.388,7.221-6.375,15.6-8.387,23.807c-2.012,8.207-4.19,16.569-8.882,23.6c-11.515,17.248-34.832,21.894-52.08,10.379
	c-3.034-2.025-5.756-4.482-8.081-7.293C129.111,95.158,143.658,92.23,152.558,82.125z"/>
<path fill="#6C63FF" d="M390.029,165.866c-21.433,0-38.807-17.374-38.807-38.807c0-21.432,17.374-38.807,38.807-38.807
	s38.807,17.375,38.807,38.807C428.812,148.482,411.451,165.842,390.029,165.866z M390.029,94.721
	c-17.86,0-32.339,14.479-32.339,32.339c0,17.86,14.479,32.339,32.339,32.339s32.339-14.479,32.339-32.339l0,0
	C422.348,109.208,407.881,94.741,390.029,94.721z"/>
<path fill="#6C63FF" d="M388.756,78.552c-1.786,0-3.234-1.448-3.234-3.234v-37.19c0-1.786,1.448-3.234,3.234-3.234
	c1.786,0,3.234,1.448,3.234,3.234v37.19C391.989,77.104,390.542,78.552,388.756,78.552z"/>
<path fill="#6C63FF" d="M338.287,129.021h-37.189c-1.786,0-3.234-1.448-3.234-3.234s1.448-3.234,3.234-3.234l0,0h37.189
	c1.786,0,3.234,1.448,3.234,3.234S340.073,129.021,338.287,129.021z"/>
<path fill="#6C63FF" d="M474.11,129.021h-37.19c-1.785,0-3.233-1.448-3.233-3.234s1.448-3.234,3.233-3.234h37.19
	c1.786,0,3.233,1.448,3.233,3.234S475.896,129.021,474.11,129.021z"/>
<path fill="#6C63FF" d="M435.898,93.662c-1.785,0-3.233-1.448-3.233-3.234c0-0.875,0.354-1.712,0.982-2.321l15.573-15.11
	c1.279-1.247,3.327-1.22,4.573,0.059c1.247,1.279,1.221,3.327-0.059,4.573c-0.003,0.003-0.007,0.007-0.011,0.01l-15.574,15.11
	C437.548,93.335,436.74,93.663,435.898,93.662z"/>
<path fill="#6C63FF" d="M340.926,93.662c-0.841,0.001-1.649-0.327-2.252-0.913L323.1,77.639c-1.285-1.24-1.321-3.288-0.08-4.572
	c1.241-1.285,3.288-1.321,4.573-0.081c0.003,0.003,0.007,0.007,0.011,0.011l15.574,15.11c1.282,1.244,1.313,3.291,0.07,4.573
	C342.638,93.307,341.8,93.662,340.926,93.662L340.926,93.662z"/>
<path fill="#6C63FF" d="M328.585,182.036c-1.787,0-3.234-1.449-3.233-3.236c0-0.84,0.328-1.648,0.913-2.251l15.574-16.038
	c1.244-1.282,3.292-1.312,4.574-0.067c1.281,1.244,1.312,3.292,0.067,4.573l-15.574,16.039
	C330.297,181.683,329.46,182.037,328.585,182.036z"/>
<path fill="#6C63FF" d="M454.707,185.27c-0.872,0.001-1.707-0.351-2.314-0.976l-18.808-19.272c-1.25-1.276-1.228-3.323,0.048-4.572
	c1.275-1.249,3.323-1.228,4.572,0.048c0.003,0.002,0.005,0.005,0.008,0.008l18.808,19.272c1.248,1.277,1.224,3.324-0.054,4.572
	C456.362,184.939,455.551,185.27,454.707,185.27L454.707,185.27z"/>
<path fill="#6C63FF" d="M388.756,217.608c-1.786,0-3.234-1.448-3.234-3.234v-37.189c0-1.786,1.448-3.234,3.234-3.234
	c1.786,0,3.234,1.448,3.234,3.234v37.189C391.989,216.161,390.542,217.608,388.756,217.608z"/>
<path id="b0998da5-27dc-40b2-8d45-277f647e44e1" fill="#A0616A" d="M347.945,151.203c-0.325,0.612-0.601,1.25-0.826,1.906
	l-60.083,15.933l-10.667-10.689l-18.235,13.989l21.819,26.57l71.943-30.748c5.92,4.212,14.133,2.828,18.345-3.092
	c4.212-5.919,2.828-14.133-3.092-18.345c-5.919-4.212-14.133-2.828-18.345,3.092C348.489,150.261,348.202,150.723,347.945,151.203
	L347.945,151.203z"/>
<path id="a2d8cb05-8bad-48ca-a39c-34dd34963d12" fill="#CCCCCC" d="M261.621,184.798l-34.563-34.568
	c-6.611-6.605-6.616-17.318-0.011-23.929c6.605-6.611,17.318-6.616,23.929-0.011c0.003,0.003,0.007,0.007,0.011,0.011l0,0
	l34.565,34.565c2.202,2.202,2.203,5.772,0.001,7.975l-0.001,0.001l-15.953,15.954c-2.205,2.199-5.772,2.199-7.977,0L261.621,184.798
	z"/>
<path fill="#6C63FF" d="M627.927,632.154H269.844c-77.251,0-140.1-63.906-140.1-142.457c0-78.552,62.849-142.458,140.1-142.458
	h25.475c14.016-28.575,35.612-52.751,62.433-69.888c27.212-17.399,58.834-26.65,91.134-26.659
	c89.593,0,164.269,70.452,171.219,160.912h7.822c59.858,0,108.557,49.47,108.557,110.275S687.785,632.154,627.927,632.154z
	 M269.844,353.239c-73.943,0-134.1,61.215-134.1,136.458c0,75.242,60.157,136.457,134.1,136.457h358.083
	c56.55,0,102.557-46.777,102.557-104.274c0-57.498-46.007-104.275-102.557-104.275h-13.445l-0.172-2.817
	c-5.405-88.651-78.068-158.095-165.424-158.095c-62.904,0-121.383,37.229-148.983,94.843l-0.816,1.704H269.844z"/>
</svg>
